# xmcd
#
# Track frame offsets:
#	150
#	17181
#	31051
#	47569
#	62408
#	75405
#	88496
#	105002
#	117251
#	132195
#
# Disc length: 1990 seconds
#
# Revision: 1
# Processed by: cddbd v1.5.2PL0 Copyright (c) Steve Scherf et al.
# Submitted via: audiograbber 1.83.01
#
DISCID=6e07c40a
DTITLE=John Anderson  - 2
DYEAR=1981
DGENRE=Country
TTITLE0=I'm Just An Old Chunk Of Coal (But I'm Gonna Be A Diamond Someday)
TTITLE1=I Love You A Thousand Ways
TTITLE2=July The 12th, 1939
TTITLE3=I've Almost Jack Daniels Drowned
TTITLE4=Mountain High, Valley Low
TTITLE5=Makin' Love And Makin' Out
TTITLE6=Motel With No Phone
TTITLE7=Chicken Truck
TTITLE8=The Same Old Girl
TTITLE9=You've GotThe Longest Leaving Act In Town
EXTD=
EXTT0=
EXTT1=
EXTT2=
EXTT3=
EXTT4=
EXTT5=
EXTT6=
EXTT7=
EXTT8=
EXTT9=
PLAYORDER=
